<svg viewBox="0 0 500 500" xmlns="http://www.w3.org/2000/svg">
            <path className='front-leg' fill="#6E856B" opacity="1.000000" stroke="none" d="M 118.918 210.129 C 120.295 197.277 129.257 188.626 142.285 188.863 C 154.527 189.085 166.75 190.397 178.98 191.237 C 186.816 191.776 194.643 192.538 202.487 192.825 C 215.128 193.289 227.78 193.442 241.078 193.773 C 242.879 193.918 244.03 194.017 245.07 194.106 C 246.388 203.816 245.008 212.709 241.134 221.252 C 238.107 220.733 235.276 219.603 232.608 219.91 C 227.526 220.493 222.458 221.616 217.524 223.011 C 203.236 227.052 189.053 231.574 173.861 229.242 C 173.24 229.146 172.565 229.399 171.636 229.528 C 182.855 239.563 191.935 250.728 199.013 263.532 C 199.676 264.731 201.242 265.808 202.6 266.188 C 224.251 272.253 238.196 286.039 244.317 307.781 C 239.492 314.402 236.916 321.745 235.017 329.362 C 231.841 342.103 229.729 355.253 220.774 365.726 C 210.519 361.725 201.747 355.399 193.132 348.028 C 183.558 336.795 174.283 325.87 165.097 314.871 C 161.502 310.565 158.106 306.093 154.618 301.43 C 147.521 290.132 140.425 279.1 133.319 267.801 C 133.087 266.838 132.957 266.094 132.629 265.453 C 123.738 248.081 118.385 229.836 118.918 210.129 M 140.46 205.463 C 140.386 205.429 140.311 205.395 140.236 205.36 C 140.332 205.476 140.428 205.592 140.512 206.153 C 140.747 206.509 140.981 206.866 141.301 207.674 C 141.748 208.041 142.193 208.408 142.79 209.014 C 142.933 208.998 143.076 208.981 143.219 208.965 C 143.096 208.831 142.973 208.697 142.753 208.115 C 142.298 207.767 141.844 207.419 141.325 206.647 C 141.065 206.327 140.806 206.006 140.46 205.463 M 148.906 216.451 C 149.74 216.889 150.573 217.328 151.533 218.249 C 156.211 223.282 162.068 226.156 168.714 227.592 C 163.046 224.193 157.376 220.795 151.463 217.019 C 150.779 216.441 150.095 215.863 149.184 214.85 C 147.581 213.469 145.977 212.087 144.205 210.479 C 144.058 210.5 143.912 210.521 143.766 210.544 C 143.885 210.682 144.004 210.819 144.238 211.442 C 145.712 212.97 147.187 214.498 148.906 216.451 Z" />
            <path className='upper-front-body-leg' fill="#F38080" opacity="1.000000" stroke="none" d="M 221.033 365.859 C 229.729 355.253 231.841 342.103 235.017 329.362 C 236.916 321.745 239.492 314.402 244.405 308.052 C 245.011 309.158 245.366 310.167 245.99 311.946 C 249.078 310.815 251.941 309.768 254.063 308.992 C 258.737 316.429 263.152 324.301 268.402 331.569 C 273.758 338.986 281.045 344.397 289.634 348.649 C 289.069 338.713 288.549 329.2 287.949 319.693 C 287.9 318.906 287.517 317.872 286.929 317.43 C 277.926 310.655 272.102 301.645 268.345 290.984 C 275.969 283.728 283.127 276.22 291.152 269.797 C 299.594 263.04 309.966 264.11 318.123 271.259 C 323.249 275.752 325.973 281.519 327.316 288.059 C 329.171 297.092 327.668 305.88 325.418 314.628 C 324.261 319.123 323.247 323.655 322.169 328.17 C 320.959 333.509 319.095 338.799 318.694 344.198 C 318.099 352.214 318.54 360.307 318.54 368.435 C 332.289 373.284 346.342 375.065 360.624 373.792 C 363.497 373.536 366.339 370.423 368.755 368.157 C 372.24 364.889 375.189 361.053 378.654 357.761 C 379.75 356.719 381.764 356.642 383.358 356.123 C 383.166 358.003 383.123 359.916 382.718 361.748 C 382.523 362.627 381.335 363.286 381.144 364.164 C 380.89 365.337 380.712 367.036 381.35 367.746 C 381.963 368.427 383.848 368.595 384.847 368.186 C 389.045 366.472 393.098 364.409 397.25 362.577 C 399.036 361.79 400.925 361.226 402.783 360.609 C 406.161 359.487 409.264 360.288 411.486 362.865 C 413.688 365.42 413.639 368.711 411.987 371.53 C 405.568 382.484 396.254 389.242 383.327 390.173 C 365.338 391.468 347.344 392.729 329.337 393.733 C 321.613 394.164 313.844 394.12 306.106 393.907 C 300.205 393.745 296.173 390.103 294.166 384.915 C 292.559 380.76 291.834 376.196 291.217 371.745 C 290.565 367.03 290.504 362.233 290.151 356.962 C 268.84 373.615 245.83 375.978 221.033 365.859 Z" />
            <path className='back-leg' fill="#1B4340" opacity="1.000000" stroke="none" d="M 154.619 301.697 C 158.106 306.093 161.502 310.565 165.097 314.871 C 174.283 325.87 183.558 336.795 192.888 347.983 C 171.475 365.709 147.822 379.08 120.42 384.66 C 112.826 386.207 104.832 386.74 97.087 386.371 C 86.421 385.863 80.238 377.834 81.977 367.078 C 83.871 355.357 86.337 343.7 89.154 332.161 C 94.411 310.624 100.102 289.193 106.047 267.488 C 113.745 267.383 120.538 269.139 126.621 273.389 C 126.35 276.338 125.95 279.005 125.983 281.668 C 126.11 292.11 126.565 302.552 126.519 312.992 C 126.487 320.254 125.834 327.513 125.459 334.773 C 134.095 322.795 143.275 311.292 154.619 301.697 Z" />
            <path className='hair' fill="#1C4340" opacity="1.000000" stroke="none" d="M 322.458 328.214 C 323.247 323.655 324.261 319.123 325.418 314.628 C 327.668 305.88 329.171 297.092 327.316 288.059 C 325.973 281.519 323.249 275.752 318.123 271.259 C 309.966 264.11 299.594 263.04 291.152 269.797 C 283.127 276.22 275.969 283.728 268.129 291.121 C 263.914 296.317 260 301.151 255.88 306.238 C 254.215 302.995 252.485 300.022 251.115 296.892 C 246.193 285.646 247.222 272.184 257.62 264.607 C 261.511 261.771 263.071 257.545 263.261 252.731 C 263.45 247.953 263.473 243.114 264.284 238.424 C 266.56 225.273 273.696 214.951 284.113 206.489 C 286.155 205.947 287.895 205.319 289.691 205 C 295.875 203.902 301.136 201.375 304.576 195.846 C 306.36 197.04 308.144 198.234 310.197 199.833 C 311.649 203.551 313.217 206.785 313.906 210.196 C 314.629 213.772 314.509 217.518 314.754 221.19 C 315.155 227.186 316.86 232.796 322.029 236.221 C 331.154 242.266 333.533 251.135 334.11 261.26 C 334.377 265.952 335.81 270.578 336.713 275.234 C 339.803 279.758 342.725 284.409 346.026 288.773 C 349.855 293.837 353.185 298.943 353.24 305.642 C 353.38 322.509 338.859 333.334 322.458 328.214 Z" />
            <path className='face' fill="#F18080" opacity="1.000000" stroke="none" d="M 336.832 274.974 C 335.81 270.578 334.377 265.952 334.11 261.26 C 333.533 251.135 331.154 242.266 322.029 236.221 C 316.86 232.796 315.155 227.186 314.754 221.19 C 314.509 217.518 314.629 213.772 313.906 210.196 C 313.217 206.785 311.649 203.551 310.389 199.982 C 314.329 201.155 318.501 202.265 322.326 204.097 C 326.87 206.272 331.355 208.228 336.45 208.735 C 338.315 208.92 340.299 209.767 341.827 210.869 C 342.953 211.683 344.383 213.818 344.023 214.643 C 342.566 217.986 344.975 219.278 346.654 221.096 C 348.48 223.071 350.448 224.968 351.949 227.175 C 353.985 230.167 353.823 233.317 350.926 235.736 C 348.593 237.683 345.872 239.16 343.5 241.065 C 342.556 241.823 341.362 243.28 341.509 244.229 C 343.16 254.895 340.807 264.904 336.832 274.974 M 317.258 214.64 C 319.074 212.353 320.889 210.066 322.387 208.181 C 318.146 208.129 314.739 212.408 316.637 217.073 C 316.858 216.244 316.998 215.719 317.258 214.64 M 326.548 213.413 C 325.042 215.266 323.537 217.119 322.202 218.762 C 325.869 218.9 328.525 215.955 327.92 211.415 C 327.422 212.058 327.084 212.494 326.548 213.413 M 341.147 227.444 C 342.048 226.096 342.95 224.747 343.853 223.399 C 343.65 223.335 343.449 223.27 343.246 223.206 C 340.803 224.97 338.359 226.735 335.306 228.94 C 337.48 228.464 339.076 228.115 341.147 227.444 Z" />
            <path className='front-foot' fill="#F28181" opacity="1.000000" stroke="none" d="M 304.577 195.556 C 301.136 201.375 295.875 203.902 289.691 205 C 287.895 205.319 286.155 205.947 283.818 206.462 C 275.726 207.462 269.902 211.018 265.979 217.62 C 264.854 219.513 263.506 221.295 262.099 222.995 C 257.991 227.957 251.872 229.298 247.796 226.208 C 245.654 224.585 243.533 222.931 241.404 221.292 C 245.008 212.709 246.388 203.816 245.07 194.106 C 244.03 194.017 242.879 193.918 241.437 193.762 C 245.533 193.561 249.925 193.483 254.31 193.259 C 268.11 192.552 281.908 191.787 295.706 191.054 C 297.052 190.983 298.406 191.037 299.746 190.919 C 302.946 190.637 304.675 191.919 304.577 195.556 Z" />
            <path className='back-foot' fill="#F28181" opacity="1.000000" stroke="none" d="M 126.691 273.106 C 120.538 269.139 113.745 267.383 106.175 267.254 C 106.677 261.452 107.829 255.676 108.219 249.849 C 108.952 238.892 109.218 227.905 109.738 216.932 C 109.864 214.265 109.992 211.557 110.573 208.97 C 110.855 207.713 112.111 205.854 113.059 205.769 C 114.319 205.658 115.776 206.917 117.015 207.779 C 117.679 208.241 118.064 209.106 118.746 209.959 C 118.385 229.836 123.738 248.081 132.629 265.453 C 132.957 266.094 133.087 266.838 133.118 267.995 C 130.849 270.006 128.77 271.556 126.691 273.106 Z" />
            <path fill="#34574C" opacity="1.000000" stroke="none" d="M 144.373 210.706 C 145.977 212.087 147.581 213.469 149.134 215.147 C 148.875 215.59 148.735 215.784 148.661 216.026 C 147.187 214.498 145.712 212.97 144.244 211.139 C 144.251 210.834 144.373 210.706 144.373 210.706 Z" />
            <path fill="#434E4B" opacity="1.000000" stroke="none" d="M 317.198 214.918 C 316.998 215.719 316.858 216.244 316.637 217.073 C 314.739 212.408 318.146 208.129 322.387 208.181 C 320.889 210.066 319.074 212.353 317.198 214.918 Z" />
            <path fill="#324946" opacity="1.000000" stroke="none" d="M 326.647 213.171 C 327.084 212.494 327.422 212.058 327.92 211.415 C 328.525 215.955 325.869 218.9 322.202 218.762 C 323.537 217.119 325.042 215.266 326.647 213.171 Z" />
            <path fill="#3D4C4A" opacity="1.000000" stroke="none" d="M 340.909 227.605 C 339.076 228.115 337.48 228.464 335.306 228.94 C 338.359 226.735 340.803 224.97 343.246 223.206 C 343.449 223.27 343.65 223.335 343.853 223.399 C 342.95 224.747 342.048 226.096 340.909 227.605 Z" />
        </svg>